<?xml version="1.0" encoding="UTF-8" standalone="no"?>
<!-- Created with Inkscape (http://www.inkscape.org/) -->

<svg
   width="266.35623mm"
   height="211.01042mm"
   viewBox="0 0 266.35623 211.01044"
   version="1.1"
   id="svg1"
   xml:space="preserve"
   inkscape:version="1.4.4 (dcaf3e7, 2026-05-05)"
   sodipodi:docname="TTT.svg"
   xmlns:inkscape="http://www.inkscape.org/namespaces/inkscape"
   xmlns:sodipodi="http://sodipodi.sourceforge.net/DTD/sodipodi-0.dtd"
   xmlns="http://www.w3.org/2000/svg"
   xmlns:svg="http://www.w3.org/2000/svg"><sodipodi:namedview
     id="namedview1"
     pagecolor="#505050"
     bordercolor="#eeeeee"
     borderopacity="1"
     inkscape:showpageshadow="0"
     inkscape:pageopacity="0"
     inkscape:pagecheckerboard="0"
     inkscape:deskcolor="#505050"
     inkscape:document-units="mm"
     inkscape:zoom="1"
     inkscape:cx="412"
     inkscape:cy="311.5"
     inkscape:window-width="2498"
     inkscape:window-height="1417"
     inkscape:window-x="2614"
     inkscape:window-y="-8"
     inkscape:window-maximized="1"
     inkscape:current-layer="g18"
     showguides="true"><inkscape:page
       x="0"
       y="0"
       width="266.35623"
       height="211.01044"
       id="page33"
       margin="0"
       bleed="0" /></sodipodi:namedview><defs
     id="defs1"><inkscape:path-effect
       effect="fillet_chamfer"
       id="path-effect33"
       is_visible="true"
       lpeversion="1"
       nodesatellites_param="F,0,0,1,0,0,0,1 @ F,0,0,1,0,61.236877,0,1 @ F,0,0,1,0,0,0,1 @ F,0,0,1,0,61.236877,0,1 @ F,0,0,1,0,61.236877,0,1 @ F,0,0,1,0,67.786877,0,1 @ F,0,0,1,0,0,0,1 @ F,0,0,1,0,86.740682,0,1"
       radius="0"
       unit="px"
       method="auto"
       mode="F"
       chamfer_steps="1"
       flexible="false"
       use_knot_distance="true"
       apply_no_radius="true"
       apply_with_radius="true"
       only_selected="false"
       hide_knots="false" /><inkscape:path-effect
       effect="fillet_chamfer"
       id="path-effect13"
       is_visible="true"
       lpeversion="1"
       nodesatellites_param="F,0,0,1,0,0,0,1 @ F,0,0,1,0,61.236877,0,1 @ F,0,0,1,0,0,0,1 @ F,0,0,1,0,61.236877,0,1 @ F,0,0,1,0,61.236877,0,1 @ F,0,0,1,0,82.786877,0,1 @ F,0,0,1,0,0,0,1 @ F,0,0,1,0,79.740682,0,1"
       radius="0"
       unit="px"
       method="auto"
       mode="F"
       chamfer_steps="1"
       flexible="false"
       use_knot_distance="true"
       apply_no_radius="true"
       apply_with_radius="true"
       only_selected="false"
       hide_knots="false" /><inkscape:path-effect
       effect="fillet_chamfer"
       id="path-effect12"
       is_visible="true"
       lpeversion="1"
       nodesatellites_param="F,0,0,1,0,0,0,1 @ F,0,0,1,0,0,0,1 @ F,0,0,1,0,0,0,1 @ F,0,0,1,0,0,0,1 @ F,0,0,1,0,0,0,1 @ F,0,0,1,0,0,0,1 @ F,0,0,1,0,0,0,1 @ F,0,0,1,0,0,0,1"
       radius="0"
       unit="px"
       method="auto"
       mode="F"
       chamfer_steps="1"
       flexible="false"
       use_knot_distance="true"
       apply_no_radius="true"
       apply_with_radius="true"
       only_selected="false"
       hide_knots="false" /></defs><g
     inkscape:label="Layer 1"
     inkscape:groupmode="layer"
     id="layer1"
     transform="translate(28.839581,-57.414586)"><path
       style="display:none;fill:#000000;stroke-width:4.43971;stroke-dasharray:none"
       id="rect1"
       width="200"
       height="200"
       x="5.8666663"
       y="62.822224"
       inkscape:label="rect1"
       inkscape:path-effect="#path-effect12"
       sodipodi:type="rect"
       d="M 11.466666,62.822224 H 200.26667 c 3.1024,0 5.6,5.3966 5.6,12.1 V 250.72222 c 0,6.7034 -2.4976,12.1 -5.6,12.1 H 11.466666 c -3.1023997,0 -5.5999997,-5.3966 -5.5999997,-12.1 V 74.922224 c 0,-6.7034 2.4976,-12.1 5.5999997,-12.1 z"
       rx="5.5999999"
       ry="12.1" /><path
       style="display:none;fill:#000000;stroke-width:0.923885;paint-order:markers fill stroke"
       d="M 22.173228,615.30709 V 237.90026 H 400.04199 777.91076 V 615.30709 992.71391 H 400.04199 22.173228 Z"
       id="path2"
       transform="scale(0.26458333)" /><path
       style="display:inline;fill:#d4a850;fill-opacity:1;stroke-width:0.923885"
       d="M 22.173228,615.30709 V 299.13714 A 61.236877,61.236877 135 0 1 83.410105,237.90026 H 400.04199 716.67388 a 61.236877,61.236877 45 0 1 61.23688,61.23688 v 254.93307 370.85682 a 67.786877,67.786877 135 0 1 -67.78688,67.78688 l -310.08189,0 H 108.91391 A 86.740682,86.740682 45 0 1 22.173228,905.97323 Z"
       id="path32"
       transform="matrix(0.27448563,0,0,0.27053199,-3.9613395,-3.6602511)"
       inkscape:label="path3"
       sodipodi:nodetypes="ccccccccc"
       inkscape:path-effect="#path-effect33"
       inkscape:original-d="M 22.173228,615.30709 V 237.90026 H 400.04199 777.91076 V 615.30709 992.71391 H 400.04199 22.173228 Z" /><path
       style="display:inline;fill:#17280b;stroke-width:0.923885"
       d="M 22.173228,615.30709 V 299.13714 A 61.236877,61.236877 135 0 1 83.410105,237.90026 H 400.04199 716.67388 a 61.236877,61.236877 45 0 1 61.23688,61.23688 v 254.93307 370.85682 a 67.786877,67.786877 135 0 1 -67.78688,67.78688 l -310.08189,0 H 108.91391 A 86.740682,86.740682 45 0 1 22.173228,905.97323 Z"
       id="path3"
       inkscape:label="path3"
       sodipodi:nodetypes="ccccccccc"
       inkscape:path-effect="#path-effect13"
       inkscape:original-d="M 22.173228,615.30709 V 237.90026 H 400.04199 777.91076 V 615.30709 992.71391 H 400.04199 22.173228 Z"
       transform="scale(0.26458333)" /></g><g
     inkscape:groupmode="layer"
     id="layer2"
     inkscape:label="T1"
     transform="matrix(1.3054811,0,0,1.3054811,13.019891,-73.390921)"
     style="fill:#d35f5f"><rect
       style="fill:#d35f5f;stroke-width:0.321396"
       id="rect6-8-1"
       width="9.2878628"
       height="6.1722226"
       x="39.949326"
       y="167.38321" /><rect
       style="fill:#d35f5f;stroke-width:0.322205"
       id="rect6-8-1-2"
       width="9.3346348"
       height="6.1722226"
       x="11.588502"
       y="167.3835" /><rect
       style="fill:#d35f5f;stroke-width:0.264583"
       id="rect3"
       width="72.599998"
       height="12.955555"
       x="-5.3777776"
       y="103.4" /><rect
       style="fill:#d35f5f;stroke-width:0.230994"
       id="rect4"
       width="19.190939"
       height="57.688889"
       x="20.837864"
       y="115.86667" /><rect
       style="fill:#d35f5f;stroke-width:0.264583"
       id="rect6"
       width="6.2944441"
       height="6.1722226"
       x="-5.3777781"
       y="116.30293" /><rect
       style="fill:#d35f5f;stroke-width:0.264583"
       id="rect6-8"
       width="6.2944441"
       height="6.1722226"
       x="60.928318"
       y="116.28036" /><path
       style="fill:#c06040;fill-opacity:1"
       d="m 43.5,654.5 v -141 H -6 -55.5 v 15 15 h -15 -15 V 497 450.5 H 93 271.5 v 46.5 46.5 h -15 -15 v -15 -15 h -52 -52 v 126 126 h 22.5 22.5 v 15 15 H 113 43.5 Z"
       id="path24"
       transform="matrix(0.20267113,0,0,0.20267113,12.1179,12.237891)" /><path
       style="fill:#c06040;fill-opacity:1"
       d="m -2.5,780.5 v -15 H 20 42.5 v 15 15 H 20 -2.5 Z"
       id="path25"
       transform="matrix(0.20267113,0,0,0.20267113,12.1179,12.237891)" /><path
       style="fill:#1f2b1d;fill-opacity:1"
       d="M 97,991.39638 C 66.545319,986.97647 39.717966,965.81158 28.684148,937.5 22.946153,922.77692 23.107227,924.92469 22.740694,858.25 L 22.401233,796.5 H 102.95062 183.5 V 781 765.5 H 161 138.5 V 640 514.5 h 51 51 v 15 15 h 16 16 V 497 449.5 h -125 -125 l 0.01736,-77.75 c 0.01941,-86.9248 -0.06737,-85.67275 6.914177,-99.75 7.05998,-14.2354 18.85874,-24.7121 34.091029,-30.27112 L 71,239 397.5,238.74227 c 323.13491,-0.25507 326.58115,-0.23721 334.37378,1.73316 22.55659,5.70342 40.33274,24.75683 44.59171,47.79571 0.66427,3.59338 1.03451,38.27713 1.03451,96.91252 V 476.5 H 651 524.5 v 47.5 47.5 h 16 16 v -15 -15 H 605 653.5 V 667 792.5 h -23 -23 v 15.5 15.5 h 85 85 v 53.54216 c 0,58.93497 -0.3194,62.89685 -6.07471,75.3513 C 763.14756,970.30641 749.1222,982.79693 730,989.28545 L 722,992 412.5,992.13358 C 241.2245,992.2075 100.32036,991.87826 97,991.39638 Z M 518.5,677 V 661.5 H 496 473.5 V 536 410.5 h 51 51 v 15 15 h 16 16 V 393 345.5 H 428 248.5 v 47.5 47.5 h 16 16 v -15 -15 H 329 377.5 V 536 661.5 h -23 -23 v 15.5 15.5 h 93.5 93.5 z"
       id="path26"
       transform="matrix(0.20267113,0,0,0.20267113,12.1179,12.237891)" /><path
       style="fill:#d8d0b8;fill-opacity:1"
       d="m 378.5,550.5 v -141 H 329 279.5 v 15 15 h -15 -15 V 393 346.5 H 428 606.5 v 46.5 46.5 h -15 -15 v -15 -15 h -52 -52 v 126 126 h 22.5 22.5 v 15 15 H 448 378.5 Z"
       id="path27"
       transform="matrix(0.20267113,0,0,0.20267113,12.1179,12.237891)" /><path
       style="fill:#8da8c4;fill-opacity:1"
       d="m 654.5,681.5 v -141 H 605 555.5 v 15 15 h -15 -15 V 524 477.5 H 704 882.5 v 46.5 46.5 h -15 -15 v -15 -15 h -52 -52 v 126 126 h 22.5 22.5 v 15 15 H 724 654.5 Z"
       id="path28"
       transform="matrix(0.20267113,0,0,0.20267113,12.1179,12.237891)" /><path
       style="fill:#8da8c4;fill-opacity:1"
       d="m 654.5,681.5 v -141 H 605 555.5 v 15 15 h -15 -15 V 524 477.5 H 704 882.5 v 46.5 46.5 h -15 -15 v -15 -15 h -52 -52 v 126 126 h 22.5 22.5 v 15 15 H 724 654.5 Z"
       id="path29"
       transform="matrix(0.20267113,0,0,0.20267113,12.1179,12.237891)" /><path
       style="fill:#8da8c4;fill-opacity:1"
       d="m 654.5,681.5 v -141 H 605 555.5 v 15 15 h -15 -15 V 524 477.5 H 704 882.5 v 46.5 46.5 h -15 -15 v -15 -15 h -52 -52 v 126 126 h 22.5 22.5 v 15 15 H 724 654.5 Z"
       id="path30"
       transform="matrix(0.20267113,0,0,0.20267113,12.1179,12.237891)" /><path
       style="fill:#8da8c4;fill-opacity:1"
       d="m 654.5,681.5 v -141 H 605 555.5 v 15 15 h -15 -15 V 524 477.5 H 704 882.5 v 46.5 46.5 h -15 -15 v -15 -15 h -52 -52 v 126 126 h 22.5 22.5 v 15 15 H 724 654.5 Z"
       id="path31"
       transform="matrix(0.20267113,0,0,0.20267113,12.1179,12.237891)" /></g><g
     inkscape:groupmode="layer"
     id="g18"
     inkscape:label="T2"
     transform="matrix(1.3054811,0,0,1.3054811,101.65531,-100.90759)"
     style="fill:#c8c4b7"><rect
       style="fill:#c8c4b7;stroke-width:0.321396"
       id="rect13"
       width="9.2878628"
       height="6.1722226"
       x="39.949326"
       y="167.38321" /><rect
       style="fill:#c8c4b7;stroke-width:0.322205"
       id="rect14"
       width="9.3346348"
       height="6.1722226"
       x="11.588502"
       y="167.3835" /><rect
       style="fill:#c8c4b7;stroke-width:0.264583"
       id="rect15"
       width="72.599998"
       height="12.955555"
       x="-5.3777776"
       y="103.4" /><rect
       style="fill:#c8c4b7;stroke-width:0.230994"
       id="rect16"
       width="19.190939"
       height="57.688889"
       x="20.837864"
       y="115.86667" /><rect
       style="fill:#c8c4b7;stroke-width:0.264583"
       id="rect17"
       width="6.2944441"
       height="6.1722226"
       x="-5.3777781"
       y="116.30293" /><rect
       style="fill:#c8c4b7;stroke-width:0.264583"
       id="rect18"
       width="6.2944441"
       height="6.1722226"
       x="60.928318"
       y="116.28036" /></g><g
     inkscape:groupmode="layer"
     id="g24"
     inkscape:label="T3"
     transform="matrix(1.3054811,0,0,1.3054811,174.68031,-66.247172)"
     style="fill:#aaccff"><rect
       style="fill:#aaccff;stroke-width:0.321396"
       id="rect19"
       width="9.2878628"
       height="6.1722226"
       x="39.949326"
       y="167.38321" /><rect
       style="fill:#aaccff;stroke-width:0.322205"
       id="rect20"
       width="9.3346348"
       height="6.1722226"
       x="11.588502"
       y="167.3835" /><rect
       style="fill:#aaccff;stroke-width:0.264583"
       id="rect21"
       width="72.599998"
       height="12.955555"
       x="-5.3777776"
       y="103.4" /><rect
       style="fill:#aaccff;stroke-width:0.230994"
       id="rect22"
       width="19.190939"
       height="57.688889"
       x="20.837864"
       y="115.86667" /><rect
       style="fill:#aaccff;stroke-width:0.264583"
       id="rect23"
       width="6.2944441"
       height="6.1722226"
       x="-5.3777781"
       y="116.30293" /><rect
       style="fill:#aaccff;stroke-width:0.264583"
       id="rect24"
       width="6.2944441"
       height="6.1722226"
       x="60.928318"
       y="116.28036" /></g></svg>
